<svg width="18" height="21" viewBox="0 0 18 21" fill="none" xmlns="http://www.w3.org/2000/svg">
<path d="M6.62185 7.86342C6.77135 7.33332 7.04522 6.86157 7.4134 6.49949C7.78159 6.13742 8.23009 5.89948 8.70844 5.81215C9.18678 5.72482 9.6765 5.79132 10.124 6.00448C10.5715 6.21764 10.959 6.56926 11.2438 7.02007C11.5285 7.47089 11.6991 8.00336 11.7371 8.55895C11.7752 9.11454 11.6789 9.67157 11.4591 10.1682C11.2392 10.6648 10.9047 11.0814 10.4918 11.3726C10.0788 11.6638 9.60392 11.818 9.1196 11.818V12.8257M9.1196 19.876C4.76875 19.876 1.2417 15.8175 1.2417 10.811C1.2417 5.80446 4.76875 1.74588 9.1196 1.74588C13.4704 1.74588 16.9975 5.80446 16.9975 10.811C16.9975 15.8175 13.4704 19.876 9.1196 19.876ZM9.16319 15.8471V15.9478L9.076 15.948V15.8471H9.16319Z" stroke="white" stroke-width="2" stroke-linecap="round" stroke-linejoin="round"/>
</svg>
