<svg width="26" height="26" viewBox="0 0 26 26" fill="none" xmlns="http://www.w3.org/2000/svg">
<path d="M24.6377 19.9667V12.1588C24.6377 11.4068 24.637 11.0306 24.5436 10.6807C24.4609 10.3706 24.325 10.0771 24.1411 9.81195C23.9336 9.51271 23.6452 9.26456 23.0671 8.76936L16.1671 2.85848C15.0939 1.93908 14.5572 1.47961 13.9533 1.30476C13.4212 1.15069 12.8539 1.15069 12.3218 1.30476C11.7183 1.47948 11.1825 1.93852 10.1108 2.85653L3.20856 8.76936C2.63049 9.26456 2.34213 9.51271 2.13464 9.81195C1.95077 10.0771 1.81386 10.3706 1.73109 10.6807C1.6377 11.0306 1.6377 11.4068 1.6377 12.1588V19.9667C1.6377 21.2782 1.6377 21.9337 1.85654 22.451C2.14834 23.1407 2.70765 23.6893 3.41211 23.9749C3.94045 24.1892 4.61024 24.1892 5.94982 24.1892C7.28941 24.1892 7.95994 24.1892 8.48828 23.9749C9.19274 23.6893 9.75191 23.1408 10.0437 22.4511C10.2625 21.9338 10.2627 21.2781 10.2627 19.9666V18.5593C10.2627 17.0047 11.5499 15.7446 13.1377 15.7446C14.7255 15.7446 16.0127 17.0047 16.0127 18.5593V19.9666C16.0127 21.2781 16.0127 21.9338 16.2315 22.4511C16.5233 23.1408 17.0827 23.6893 17.7871 23.9749C18.3155 24.1892 18.9852 24.1892 20.3248 24.1892C21.6644 24.1892 22.3349 24.1892 22.8633 23.9749C23.5677 23.6893 24.1269 23.1407 24.4187 22.451C24.6375 21.9337 24.6377 21.2782 24.6377 19.9667Z" stroke="#ffffffff" stroke-width="2" stroke-linecap="round" stroke-linejoin="round"/>
</svg>
