<svg width="26" height="25" viewBox="0 0 26 25" fill="none" xmlns="http://www.w3.org/2000/svg">
<path d="M7.6569 7.33102H5.25716C3.76369 7.33102 3.01639 7.33102 2.44596 7.63076C1.9442 7.89441 1.53655 8.3148 1.28088 8.83224C0.990234 9.4205 0.990234 10.1911 0.990234 11.7313V19.4313C0.990234 20.9714 0.990234 21.7411 1.28088 22.3294C1.53655 22.8468 1.9442 23.2679 2.44596 23.5316C3.01584 23.831 3.76223 23.831 5.25278 23.831H20.7277C22.2182 23.831 22.9636 23.831 23.5334 23.5316C24.0352 23.2679 24.4442 22.8468 24.6999 22.3294C24.9902 21.7417 24.9902 20.9731 24.9902 19.4359V11.7268C24.9902 10.1896 24.9902 9.41993 24.6999 8.83224C24.4442 8.3148 24.0352 7.89441 23.5334 7.63076C22.963 7.33102 22.2173 7.33102 20.7238 7.33102H18.3236M7.6569 7.33102H18.3236M7.6569 7.33102C7.6569 4.29346 10.0447 1.83102 12.9902 1.83102C15.9358 1.83102 18.3236 4.29346 18.3236 7.33102" stroke="white" stroke-width="2" stroke-linecap="round" stroke-linejoin="round"/>
</svg>
