<svg width="20" height="28" viewBox="0 0 20 28" fill="none" xmlns="http://www.w3.org/2000/svg">
<path d="M9.04228 1.48827L9.23352 0.50673L9.04228 1.48827ZM13.2111 2.30047L13.4023 1.31892L13.4023 1.31892L13.2111 2.30047ZM13.2111 25.6789L13.0198 24.6974L13.0198 24.6974L13.2111 25.6789ZM9.04228 26.4911L9.23352 27.4727L9.23352 27.4727L9.04228 26.4911ZM17.379 24.1693L16.6072 23.5334L16.6072 23.5334L17.379 24.1693ZM17.379 3.81008L18.1507 3.17416L18.1507 3.17416L17.379 3.81008ZM5.00553 1.44367L4.36962 0.671911L4.36962 0.671912L5.00553 1.44367ZM13.1402 13.9897L14.0027 14.4956L14.2995 13.9897L14.0027 13.4837L13.1402 13.9897ZM1.3233 12.9897C0.771018 12.9897 0.323303 13.4374 0.323303 13.9897C0.323303 14.5419 0.771018 14.9897 1.3233 14.9897V12.9897ZM9.04228 1.48827L8.85105 2.46982L13.0198 3.28201L13.2111 2.30047L13.4023 1.31892L9.23352 0.50673L9.04228 1.48827ZM18.0637 8.18974H17.0637V19.7896H18.0637H19.0637V8.18974H18.0637ZM13.2111 25.6789L13.0198 24.6974L8.85105 25.5096L9.04228 26.4911L9.23352 27.4727L13.4023 26.6605L13.2111 25.6789ZM4.27736 7.452H5.27736V5.41445H4.27736H3.27736V7.452H4.27736ZM4.27736 22.5649H5.27736V20.7932H4.27736H3.27736V22.5649H4.27736ZM9.04228 26.4911L8.85105 25.5096C7.71787 25.7303 6.97374 25.8728 6.41941 25.9008C5.89252 25.9274 5.73016 25.837 5.64144 25.7639L5.00553 26.5357L4.36962 27.3075C5.00908 27.8344 5.76224 27.9366 6.52025 27.8983C7.25083 27.8614 8.16099 27.6816 9.23352 27.4727L9.04228 26.4911ZM4.27736 22.5649H3.27736C3.27736 23.6576 3.27493 24.5854 3.37844 25.3095C3.48584 26.0609 3.73016 26.7806 4.36962 27.3075L5.00553 26.5357L5.64144 25.7639C5.55273 25.6908 5.43297 25.5488 5.35832 25.0265C5.27978 24.4771 5.27736 23.7194 5.27736 22.5649H4.27736ZM18.0637 19.7896H17.0637C17.0637 20.9978 17.0619 21.8127 16.9856 22.4328C16.9126 23.0256 16.7833 23.3197 16.6072 23.5334L17.379 24.1693L18.1507 24.8052C18.6594 24.1879 18.8724 23.4751 18.9706 22.6772C19.0654 21.9067 19.0637 20.9473 19.0637 19.7896H18.0637ZM13.2111 25.6789L13.4023 26.6605C14.5386 26.4391 15.4806 26.2573 16.2188 26.0169C16.9832 25.7679 17.6421 25.4225 18.1507 24.8052L17.379 24.1693L16.6072 23.5334C16.4311 23.7471 16.1672 23.9303 15.5993 24.1152C15.0052 24.3088 14.2057 24.4663 13.0198 24.6974L13.2111 25.6789ZM13.2111 2.30047L13.0198 3.28201C14.2057 3.51304 15.0052 3.67062 15.5993 3.86413C16.1672 4.0491 16.4311 4.23232 16.6072 4.44599L17.379 3.81008L18.1507 3.17416C17.6421 2.55684 16.9832 2.21147 16.2188 1.96248C15.4806 1.72203 14.5386 1.5403 13.4023 1.31892L13.2111 2.30047ZM18.0637 8.18974H19.0637C19.0637 7.03208 19.0654 6.0727 18.9706 5.30219C18.8724 4.50428 18.6594 3.79149 18.1507 3.17416L17.379 3.81008L16.6072 4.44599C16.7833 4.65965 16.9126 4.9538 16.9856 5.54653C17.0619 6.16665 17.0637 6.98162 17.0637 8.18974H18.0637ZM9.04228 1.48827L9.23352 0.50673C8.16099 0.297772 7.25083 0.117979 6.52025 0.0810962C5.76224 0.0428286 5.00908 0.145011 4.36962 0.671911L5.00553 1.44367L5.64145 2.21543C5.73016 2.14234 5.89252 2.05195 6.41941 2.07855C6.97374 2.10654 7.71787 2.24904 8.85105 2.46982L9.04228 1.48827ZM4.27736 5.41445H5.27736C5.27736 4.25996 5.27978 3.50231 5.35832 2.95287C5.43297 2.43062 5.55273 2.28853 5.64145 2.21543L5.00553 1.44367L4.36962 0.671912C3.73016 1.19881 3.48584 1.91853 3.37844 2.66987C3.27493 3.39402 3.27736 4.32176 3.27736 5.41445H4.27736ZM9.2012 7.27478L8.33865 7.78075L12.2776 14.4956L13.1402 13.9897L14.0027 13.4837L10.0638 6.76881L9.2012 7.27478ZM13.1402 13.9897L12.2776 13.4837L8.33865 20.1986L9.2012 20.7045L10.0638 21.2105L14.0027 14.4956L13.1402 13.9897ZM13.1402 13.9897V12.9897H1.3233V13.9897V14.9897H13.1402V13.9897Z" fill="white"/>
</svg>
