<svg width="26" height="22" viewBox="0 0 26 22" fill="none" xmlns="http://www.w3.org/2000/svg">
<path d="M24.7441 20.2794C24.7441 18.0733 22.6107 16.1965 19.633 15.501M17.0775 20.2794C17.0775 17.4812 13.645 15.2128 9.41081 15.2128C5.17662 15.2128 1.74414 17.4812 1.74414 20.2794M17.0775 11.4128C19.9003 11.4128 22.1886 9.14436 22.1886 6.34612C22.1886 3.54787 19.9003 1.27945 17.0775 1.27945M9.41081 11.4128C6.58802 11.4128 4.2997 9.14436 4.2997 6.34612C4.2997 3.54787 6.58802 1.27945 9.41081 1.27945C12.2336 1.27945 14.5219 3.54787 14.5219 6.34612C14.5219 9.14436 12.2336 11.4128 9.41081 11.4128Z" stroke="white" stroke-width="2" stroke-linecap="round" stroke-linejoin="round"/>
</svg>
